<?xml version="1.0" encoding="UTF-8" standalone="no"?>
<!-- Created with Inkscape (http://www.inkscape.org/) -->

<svg
   width="30"
   height="30"
   viewBox="0 0 7.9374998 7.9375"
   version="1.1"
   id="svg5"
   inkscape:version="1.2.1 (9c6d41e410, 2022-07-14)"
   sodipodi:docname="location.svg"
   xmlns:inkscape="http://www.inkscape.org/namespaces/inkscape"
   xmlns:sodipodi="http://sodipodi.sourceforge.net/DTD/sodipodi-0.dtd"
   xmlns="http://www.w3.org/2000/svg"
   xmlns:svg="http://www.w3.org/2000/svg">
  <sodipodi:namedview
     id="namedview7"
     pagecolor="#ffffff"
     bordercolor="#666666"
     borderopacity="1.0"
     inkscape:showpageshadow="2"
     inkscape:pageopacity="0.0"
     inkscape:pagecheckerboard="0"
     inkscape:deskcolor="#d1d1d1"
     inkscape:document-units="mm"
     showgrid="false"
     inkscape:zoom="9.5144352"
     inkscape:cx="18.182897"
     inkscape:cy="11.981794"
     inkscape:window-width="1366"
     inkscape:window-height="699"
     inkscape:window-x="0"
     inkscape:window-y="0"
     inkscape:window-maximized="1"
     inkscape:current-layer="layer1" />
  <defs
     id="defs2" />
  <g
     inkscape:label="Layer 1"
     inkscape:groupmode="layer"
     id="layer1">
    <path
       id="path18097"
       d="M 4.1697354,3.0534702e-4 C 4.138943,-2.0411265e-4 4.1077012,-4.6779513e-5 4.0760472,5.6007685e-4 1.8490491,0.04304002 1.5274078,2.5362233 1.9421155,3.2435706 3.0295946,5.0984008 4.1269033,7.9375 4.1269033,7.9375 c 0,0 0.887666,-2.7543715 1.8582391,-4.6939294 C 6.4028619,2.4088284 6.1101923,0.03736854 4.1697578,3.0534702e-4 Z M 3.9698549,1.3870771 A 0.91586074,1.0225205 0 0 1 4.8856685,2.4095551 0.91586074,1.0225205 0 0 1 3.9698549,3.4320332 0.91586074,1.0225205 0 0 1 3.0540262,2.4095551 0.91586074,1.0225205 0 0 1 3.9698549,1.3870771 Z"
       style="fill:#aa0000;fill-rule:evenodd;stroke:none;stroke-width:0.481382" />
  </g>
</svg>
