<?xml version="1.0" encoding="UTF-8" standalone="no"?>
<!-- Created with Inkscape (http://www.inkscape.org/) -->

<svg
   width="175.99997mm"
   height="77.390755mm"
   viewBox="0 0 175.99997 77.390756"
   version="1.1"
   id="svg10274"
   xml:space="preserve"
   inkscape:version="1.2.1 (9c6d41e410, 2022-07-14)"
   sodipodi:docname="logo_with_name_initials.svg"
   xmlns:inkscape="http://www.inkscape.org/namespaces/inkscape"
   xmlns:sodipodi="http://sodipodi.sourceforge.net/DTD/sodipodi-0.dtd"
   xmlns="http://www.w3.org/2000/svg"
   xmlns:svg="http://www.w3.org/2000/svg"><sodipodi:namedview
     id="namedview10276"
     pagecolor="#ffffff"
     bordercolor="#666666"
     borderopacity="1.0"
     inkscape:showpageshadow="2"
     inkscape:pageopacity="0.0"
     inkscape:pagecheckerboard="0"
     inkscape:deskcolor="#d1d1d1"
     inkscape:document-units="mm"
     showgrid="false"
     inkscape:zoom="0.2973261"
     inkscape:cx="721.43011"
     inkscape:cy="460.77354"
     inkscape:window-width="1366"
     inkscape:window-height="699"
     inkscape:window-x="0"
     inkscape:window-y="0"
     inkscape:window-maximized="1"
     inkscape:current-layer="layer1" /><defs
     id="defs10271"><inkscape:path-effect
       effect="fill_between_many"
       method="originald"
       linkedpaths="#path7063,0,1"
       id="path-effect7067"
       is_visible="true"
       lpeversion="0"
       join="true"
       close="true"
       autoreverse="true" /><inkscape:path-effect
       effect="fill_between_many"
       method="originald"
       linkedpaths="#rect572,0,1"
       id="path-effect5382"
       is_visible="true"
       lpeversion="0"
       join="true"
       close="true"
       autoreverse="true" /><inkscape:path-effect
       effect="fill_between_many"
       method="originald"
       linkedpaths="#rect1423,0,1"
       id="path-effect5462"
       is_visible="true"
       lpeversion="0"
       join="true"
       close="true"
       autoreverse="true" /><inkscape:path-effect
       effect="fill_between_many"
       method="originald"
       linkedpaths="#path5500,0,1"
       id="path-effect5504"
       is_visible="true"
       lpeversion="0"
       join="true"
       close="true"
       autoreverse="true" /></defs><g
     inkscape:label="Layer 1"
     inkscape:groupmode="layer"
     id="layer1"
     transform="translate(-11.126616,-128.24421)"><g
       id="g10442"
       transform="matrix(0.30704516,0,0,0.30704516,11.126616,128.24421)"
       style="fill:#ff0000;stroke:#ff0000"><g
         id="layer4"
         inkscape:label="Layer 3"
         style="fill:#ff0000;stroke:#ff0000" /><g
         id="layer2"
         inkscape:label="Layer 2"
         transform="translate(28.289174,31.239276)"
         style="fill:#ff0000;stroke:#ff0000"><path
           id="path8553"
           style="opacity:1;fill:#ff0000;stroke:#ff0000;stroke-width:2.64583;stroke-linecap:round;stroke-dasharray:none"
           d="M 148.49998,-9.487793 A 114.48772,114.48772 0 0 0 81.719043,12.093835 l 7.412984,7.450192 A 104.11759,104.11759 0 0 1 148.49998,0.88263346 104.11759,104.11759 0 0 1 211.57778,22.248254 l 8.28994,-6.768579 A 114.48772,114.48772 0 0 0 148.49998,-9.487793 Z M 35.750273,85.510543 a 114.48772,114.48772 0 0 0 -1.737879,19.489247 114.48772,114.48772 0 0 0 114.487586,114.4881 114.48772,114.48772 0 0 0 114.48759,-114.4881 114.48772,114.48772 0 0 0 -1.06712,-15.18305 l -9.69243,6.434232 a 104.11759,104.11759 0 0 1 0.38964,8.748818 A 104.11759,104.11759 0 0 1 148.49998,209.11747 104.11759,104.11759 0 0 1 44.382304,104.99979 104.11759,104.11759 0 0 1 44.876331,95.368856 Z" /><circle
           style="opacity:1;fill:#ff0000;stroke:#ff0000;stroke-width:2.64583;stroke-linecap:round;stroke-dasharray:none"
           id="path8596"
           cx="-19.124144"
           cy="9.6757517"
           r="7.8421154" /><path
           style="color:#000000;fill:#ff0000;stroke:#ff0000;-inkscape-stroke:none"
           d="m -20.123047,9.2792969 -0.980469,62.0800781 57.835938,44.162105 1.605469,-2.10351 -56.773438,-43.351564 0.957031,-60.7441404 z"
           id="path8598" /><circle
           style="opacity:1;fill:#ff0000;stroke:#ff0000;stroke-width:2.64583;stroke-linecap:round;stroke-dasharray:none"
           id="circle8600"
           cx="2.0425239"
           cy="189.59247"
           r="7.8421154" /><path
           style="color:#000000;fill:#ff0000;stroke:#ff0000;-inkscape-stroke:none"
           d="M 51.712891,156.00781 0.99804688,189.06055 2.4433594,191.27734 53.158203,158.22266 Z"
           id="path8602" /><circle
           style="opacity:1;fill:#ff0000;stroke:#ff0000;stroke-width:2.64583;stroke-linecap:round;stroke-dasharray:none"
           id="circle8604"
           cx="292.02588"
           cy="157.84244"
           r="7.8421154" /><path
           style="color:#000000;fill:#ff0000;stroke:#ff0000;-inkscape-stroke:none"
           d="m 290.48828,157.89648 -21.14844,29.67774 -20.45703,0.4043 -12.26953,-14.36524 -2.01172,1.71875 13.08203,15.31836 23.03907,-0.45703 21.91992,-30.76172 z"
           id="path8606" /><circle
           style="opacity:1;fill:#ff0000;stroke:#ff0000;stroke-width:2.64583;stroke-linecap:round;stroke-dasharray:none"
           id="circle8608"
           cx="281.44257"
           cy="14.967422"
           r="7.8421154" /><path
           style="color:#000000;fill:#ff0000;stroke:#ff0000;-inkscape-stroke:none"
           d="m 184.3125,0.63085937 -0.0117,2.64648443 79.23242,0.3515625 17.27344,13.4980467 1.62891,-2.083984 -17.98438,-14.05664087 z"
           id="path8610" /><circle
           style="opacity:1;fill:#ff0000;stroke:#ff0000;stroke-width:2.64583;stroke-linecap:round;stroke-dasharray:none"
           id="circle8612"
           cx="48.60918"
           cy="-22.074245"
           r="7.8421154" /><path
           style="color:#000000;fill:#ff0000;stroke:#ff0000;-inkscape-stroke:none"
           d="m 51.345703,-23.693359 -0.0918,2.642578 32.185547,1.130859 21.53516,23.6132814 1.95312,-1.7832032 -22.283202,-24.4355472 z"
           id="path8614" /></g><g
         inkscape:label="Layer 1"
         id="layer1-3"
         style="display:inline;fill:#ff0000;stroke:#ff0000"
         transform="translate(28.289174,31.239276)"><path
           id="path7682"
           style="display:none;fill:#ff0000;stroke-width:0.264583;stroke-linecap:round;stroke:#ff0000"
           d="M 158.50507,141.09161 C 194.1628,105.51225 203.03424,73.383559 188.9477,58.596932 174.86116,43.810292 156.80939,21.317791 112.95664,65.49936 L 92.653878,84.875469 c 0,0 -7.6984,6.82272 -1.87527,13.452116 4.49093,4.191975 9.21368,2.024965 11.772312,0.21449 l 19.93044,-19.930426 c 0.49891,-0.4989 1.30219,-0.49854 1.8011,3.6e-4 0.49889,0.4989 0.86899,1.672043 0.37417,2.17491 L 67.587948,138.78373 c -10.24487,10.41149 -0.25724,21.70009 10.32765,11.12432 l 40.351532,-40.31676 c 0.68074,-0.68015 1.77618,-0.68081 2.45663,-3.6e-4 0.68043,0.68043 0.68007,1.77618 -3.7e-4,2.45663 l -41.577232,41.57728 c -12.2962,11.9262 -3.3153,22.59184 9.2553,9.77948 l 41.839332,-41.83936 c 0.68045,-0.68045 1.7762,-0.6808 2.45665,-3.6e-4 0.68044,0.68045 0.68007,1.7762 -3.7e-4,2.45665 l -40.739462,40.73948 c -10.92825,9.38971 -1.31807,19.8402 9.255042,9.77976 l 41.00182,-41.00185 c 0.68044,-0.68045 1.77621,-0.6808 2.45664,-3.6e-4 0.68044,0.68045 0.68009,1.77621 -3.6e-4,2.45664 0,0 -6.50554,5.82924 -33.48261,33.66511 -6.24975,8.06133 0.83674,16.65843 11.19623,7.40053 23.44341,-24.35551 20.53261,-20.27006 32.65485,-32.5191 1.16011,-1.15163 2.31594,-2.30178 3.46591,-3.44978 z"
           sodipodi:nodetypes="czccccssssssssccsssccsssccccc" /><path
           id="rect7539"
           style="display:none;stroke-width:0.264583;stroke-linecap:round;fill:#ff0000;stroke:#ff0000"
           d="M 124.98231,95.638473 C 89.402957,59.980775 57.274293,51.109343 42.487668,65.195876 27.701046,79.282403 5.2085577,97.334172 49.390092,141.1869 l 19.376113,20.30278 c 0,0 6.822705,7.69839 13.452108,1.87528 4.191971,-4.49096 2.024947,-9.21371 0.214492,-11.77234 L 62.50238,131.66218 c -0.498898,-0.4989 -0.49854,-1.30219 3.58e-4,-1.80109 0.498901,-0.4989 1.669879,-0.86686 2.174913,-0.37418 l 59.584309,58.12705 c 10.45558,10.19987 21.76724,0.18973 11.12431,-10.32764 l -41.90426,-41.4099 c -0.684464,-0.67639 -0.680807,-1.77619 -3.69e-4,-2.45664 0.680435,-0.68043 1.772003,-0.67587 2.456633,3.7e-4 l 43.164776,42.63563 c 11.9262,12.29618 22.59184,3.3153 9.77949,-9.25532 l -43.42686,-42.89771 c -0.68461,-0.67627 -0.68081,-1.7762 -3.7e-4,-2.45665 0.68045,-0.68044 1.77193,-0.67577 2.45663,3.7e-4 l 42.32699,41.79784 c 9.38973,10.92826 19.84021,1.31806 9.77977,-9.25505 l -42.58934,-42.0602 c -0.68468,-0.67617 -0.68081,-1.77619 -3.7e-4,-2.45663 0.68045,-0.68044 1.77619,-0.68008 2.45663,3.7e-4 0,0 7.41674,7.56388 35.25263,34.54096 8.06133,6.24975 16.65842,-0.83674 7.40051,-11.19623 -24.3555,-23.44342 -21.85756,-21.59096 -34.10662,-33.713179 -1.1517,-1.160038 -2.30208,-2.315646 -3.44981,-3.465885 z"
           sodipodi:nodetypes="czccccssssssssccsssccsssccccc" /><g
           id="g8511"
           transform="translate(13.496719,-7.6066397)"
           style="fill:#ff0000;stroke:#ff0000"><rect
             style="fill:#ff0000;stroke:#ff0000;stroke-width:0.264583;stroke-linecap:round"
             id="rect7638"
             width="38.438335"
             height="67.059036"
             x="56.654934"
             y="-31.917727"
             ry="1.7369881"
             transform="rotate(49.864297)" /><rect
             style="fill:#ff0000;stroke:#ff0000;stroke-width:0.264583;stroke-linecap:round"
             id="rect7684"
             width="35.080788"
             height="67.059036"
             x="-150.94087"
             y="-224.87695"
             ry="1.7369881"
             transform="rotate(139.8643)" /><path
             id="path7688"
             style="fill:#ff0000;stroke:#ff0000;stroke-width:0.264583;stroke-linecap:round"
             d="m 184.03682,58.83437 c -11.09996,-0.910151 -25.85272,4.425549 -46.60824,22.058487 l -7.40624,5.998868 11.58347,11.416516 4.2016,-3.542549 c 0.53942,-0.454796 1.33959,-0.386182 1.79439,0.153226 0.4548,0.539407 0.72407,1.739341 0.1884,2.198438 l -4.17286,3.576634 42.63682,50.56889 c 30.59512,-29.17726 39.09615,-56.3253 27.47726,-70.803828 -7.18984,-8.959415 -15.42322,-20.45449 -29.6946,-21.624682 z"
             sodipodi:nodetypes="sccccscccss" /><path
             id="path8176"
             style="display:inline;fill:#ff0000;stroke:#ff0000;stroke-width:0.264583;stroke-linecap:round"
             d="m 83.652068,68.663721 c -5.958455,-0.01145 -11.130819,1.666405 -15.268305,4.986701 -15.927765,12.781877 -39.86988,28.861208 0.433785,76.302178 l 17.584888,21.87313 c 0,0 6.1449,8.24871 13.24417,3.00876 0.359134,-0.32459 0.674864,-0.6546 0.958724,-0.9873 l -8.591384,-10.252 c 0,0 -4.57422,-4.45781 -5.077,-7.40922 -0.42741,-2.509 -0.60724,-6.00199 1.98711,-7.37232 l -0.6392,-0.53284 0.035,-0.0291 -5.629884,-6.67716 c -0.454791,-0.5394 -0.386418,-1.33962 0.152988,-1.79441 0.539404,-0.4548 1.737584,-0.72263 2.199021,-0.18891 l 5.737175,6.63635 c 10.490474,-7.89874 18.456904,2.36601 9.821744,11.36051 l 2.08072,2.40633 c 12.71889,-10.27508 20.14425,-0.14805 8.78319,10.15913 l 2.33062,2.69561 c 10.97143,-8.46089 19.24635,1.9282 8.81592,10.19775 l 13.1024,13.88327 c 10.02533,10.62297 21.67227,2.03493 11.95955,-9.34699 l -34.47236,-39.18277 c -0.63563,-0.72248 -0.52781,-1.82757 0.20786,-2.44786 0.73569,-0.62028 1.82306,-0.52296 2.44787,0.20889 l 37.07175,42.22702 c 10.84053,13.26312 22.22904,5.21906 10.52886,-8.39267 l -37.31077,-42.51112 c -0.6248,-0.73184 -0.52783,-1.82705 0.20787,-2.44735 0.7357,-0.62029 1.81269,-0.51449 2.44786,0.20839 l 36.30845,41.32151 c 8.42919,11.68506 19.65698,2.9954 10.52938,-8.39266 l -36.54746,-41.60465 c -0.62485,-0.73178 -0.52782,-1.82757 0.20786,-2.44786 0.7357,-0.62028 1.82757,-0.52675 2.44787,0.20891 0,0 6.74864,8.16558 32.1966,37.40572 7.50234,6.91075 16.66937,0.57901 8.3233,-10.52815 -22.27978,-25.42407 -19.94826,-23.36691 -31.12524,-36.48408 -1.04915,-1.25352 -2.09709,-2.50268 -3.14316,-3.7461 -3.08963,-3.67263 -6.16834,-7.09869 -9.22456,-10.28371 l -13.37232,11.27479 c -2.70295,1.58699 -7.59268,3.34541 -11.71196,-1.21227 -5.23999,-7.09927 3.00927,-13.244174 3.00927,-13.244174 l 10.13878,-8.151085 C 111.78192,76.457853 97.722956,69.691273 86.252956,68.772178 c -0.882579,-0.07072 -1.74968,-0.10682 -2.600888,-0.108457 z"
             sodipodi:nodetypes="sscccccaccccsccccccccccsccccsccccsccccccccccss" /><path
             style="fill:#ff0000;stroke:#ff0000;stroke-width:0.264583px;stroke-linecap:butt;stroke-linejoin:miter;stroke-opacity:1"
             d="m 121.20777,184.03652 c 0,0 -8.68709,2.45495 -11.86479,-1.08495 -3.28023,-1.45148 -5.1217,-4.74974 -7.88245,-7.79132 0,0 0.63819,3.60294 4.75381,7.33926 4.33095,4.07681 9.30614,4.6181 14.99343,1.53701 z"
             id="path8326"
             sodipodi:nodetypes="ccccc" /></g></g></g><g
       inkscape:label="Layer 1"
       id="layer1-7"
       transform="translate(117.15417,143.12709)"
       style="fill:#ff0000;stroke:#ff0000"><path
         id="rect572-5"
         style="fill:#ff0000;stroke:#ff0000;stroke-width:0.269447;stroke-linecap:round;stroke-dasharray:none"
         d="m 16.950603,4.9391659 1.34e-4,14.8174981 h -0.03307 l 0.03288,4.900578 -2.73e-4,19.795251 h 9.525 L 26.47514,29.634996 h 9.525 l -4.34e-4,-9.878332 H 26.47574 l -2.17e-4,-4.939166 h 9.524483 l 8.3e-5,-9.8783321 H 26.475603 16.95112 Z"
         transform="matrix(1,0,-0.26506112,0.96423161,-1.407917,6.0914119e-7)"
         class="UnoptimicedTransforms" /><path
         style="fill:#ff0000;stroke:#ff0000;stroke-width:0.264583px;stroke-linecap:butt;stroke-linejoin:miter;stroke-opacity:1"
         d="M 25.455219,42.862499 35.928649,4.7625022 h 9.525 l 4.19502,11.4983458 10.62527,-11.4983458 h 9.525 L 59.343959,42.862499 h -9.52485 l 6.14749,-22.964194 -3.55854,3.914195 h -9.525 l -1.45179,-4.41751 -6.45107,23.467509 z"
         id="path5517-3" /></g></g></svg>
