<?xml version="1.0" encoding="UTF-8" standalone="no"?>
<!-- Created with Inkscape (http://www.inkscape.org/) -->

<svg
   width="1920"
   height="1080"
   viewBox="0 0 508 285.75"
   version="1.1"
   id="svg18498"
   inkscape:version="1.2.1 (9c6d41e410, 2022-07-14)"
   sodipodi:docname="login_page.svg"
   xmlns:inkscape="http://www.inkscape.org/namespaces/inkscape"
   xmlns:sodipodi="http://sodipodi.sourceforge.net/DTD/sodipodi-0.dtd"
   xmlns="http://www.w3.org/2000/svg"
   xmlns:svg="http://www.w3.org/2000/svg">
  <sodipodi:namedview
     id="namedview18500"
     pagecolor="#ffffff"
     bordercolor="#666666"
     borderopacity="1.0"
     inkscape:showpageshadow="2"
     inkscape:pageopacity="0.0"
     inkscape:pagecheckerboard="0"
     inkscape:deskcolor="#d1d1d1"
     inkscape:document-units="mm"
     showgrid="false"
     inkscape:zoom="0.2973261"
     inkscape:cx="1151.9339"
     inkscape:cy="588.57934"
     inkscape:window-width="1366"
     inkscape:window-height="699"
     inkscape:window-x="0"
     inkscape:window-y="0"
     inkscape:window-maximized="1"
     inkscape:current-layer="layer1" />
  <defs
     id="defs18495">
    <inkscape:path-effect
       effect="fill_between_many"
       method="originald"
       linkedpaths="#rect572,0,1"
       id="path-effect5382"
       is_visible="true"
       lpeversion="0"
       join="true"
       close="true"
       autoreverse="true" />
    <filter
       style="color-interpolation-filters:sRGB;"
       inkscape:label="Drop Shadow"
       id="filter24828"
       x="-0.025344448"
       y="-0.026358456"
       width="1.0718093"
       height="1.0746823">
      <feFlood
         flood-opacity="0.498039"
         flood-color="rgb(0,0,0)"
         result="flood"
         id="feFlood24818" />
      <feComposite
         in="flood"
         in2="SourceGraphic"
         operator="in"
         result="composite1"
         id="feComposite24820" />
      <feGaussianBlur
         in="composite1"
         stdDeviation="2.5"
         result="blur"
         id="feGaussianBlur24822" />
      <feOffset
         dx="5"
         dy="5"
         result="offset"
         id="feOffset24824" />
      <feComposite
         in="SourceGraphic"
         in2="offset"
         operator="over"
         result="composite2"
         id="feComposite24826" />
    </filter>
  </defs>
  <g
     inkscape:label="Layer 1"
     inkscape:groupmode="layer"
     id="layer1">
    <rect
       style="fill:#2200bb;fill-opacity:1;stroke-width:1.85208;stroke-linecap:round"
       id="rect18619"
       width="508"
       height="285.75"
       x="0"
       y="0"
       ry="0"
       sodipodi:insensitive="true" />
    <rect
       style="fill:#dfdfdf;fill-opacity:1;stroke-width:1.85208;stroke-linecap:round;filter:url(#filter24828)"
       id="rect22251"
       width="236.73824"
       height="227.63094"
       x="135.63087"
       y="37.150101"
       ry="6"
       sodipodi:insensitive="true" />
    <g
       id="g6012"
       transform="matrix(0.08365033,0,0,0.08365033,2.6458334,4.2333335)"
       style="fill:#ffffff;stroke:#ffffff">
      <g
         id="layer4"
         inkscape:label="Layer 3"
         style="fill:#ffffff;stroke:#ffffff" />
      <g
         id="layer2"
         inkscape:label="Layer 2"
         transform="translate(28.289174,31.239276)"
         style="fill:#ffffff;stroke:#ffffff">
        <path
           id="path8553"
           style="opacity:1;fill:#ffffff;stroke:#ffffff;stroke-width:2.64583;stroke-linecap:round;stroke-dasharray:none"
           d="M 148.49998,-9.487793 A 114.48772,114.48772 0 0 0 81.719043,12.093835 l 7.412984,7.450192 A 104.11759,104.11759 0 0 1 148.49998,0.88263346 104.11759,104.11759 0 0 1 211.57778,22.248254 l 8.28994,-6.768579 A 114.48772,114.48772 0 0 0 148.49998,-9.487793 Z M 35.750273,85.510543 a 114.48772,114.48772 0 0 0 -1.737879,19.489247 114.48772,114.48772 0 0 0 114.487586,114.4881 114.48772,114.48772 0 0 0 114.48759,-114.4881 114.48772,114.48772 0 0 0 -1.06712,-15.18305 l -9.69243,6.434232 a 104.11759,104.11759 0 0 1 0.38964,8.748818 A 104.11759,104.11759 0 0 1 148.49998,209.11747 104.11759,104.11759 0 0 1 44.382304,104.99979 104.11759,104.11759 0 0 1 44.876331,95.368856 Z" />
        <circle
           style="opacity:1;fill:#ffffff;stroke:#ffffff;stroke-width:2.64583;stroke-linecap:round;stroke-dasharray:none"
           id="path8596"
           cx="-19.124144"
           cy="9.6757517"
           r="7.8421154" />
        <path
           style="color:#000000;fill:#ffffff;stroke:#ffffff;-inkscape-stroke:none"
           d="m -20.123047,9.2792969 -0.980469,62.0800781 57.835938,44.162105 1.605469,-2.10351 -56.773438,-43.351564 0.957031,-60.7441404 z"
           id="path8598" />
        <circle
           style="opacity:1;fill:#ffffff;stroke:#ffffff;stroke-width:2.64583;stroke-linecap:round;stroke-dasharray:none"
           id="circle8600"
           cx="2.0425239"
           cy="189.59247"
           r="7.8421154" />
        <path
           style="color:#000000;fill:#ffffff;stroke:#ffffff;-inkscape-stroke:none"
           d="M 51.712891,156.00781 0.99804688,189.06055 2.4433594,191.27734 53.158203,158.22266 Z"
           id="path8602" />
        <circle
           style="opacity:1;fill:#ffffff;stroke:#ffffff;stroke-width:2.64583;stroke-linecap:round;stroke-dasharray:none"
           id="circle8604"
           cx="292.02588"
           cy="157.84244"
           r="7.8421154" />
        <path
           style="color:#000000;fill:#ffffff;stroke:#ffffff;-inkscape-stroke:none"
           d="m 290.48828,157.89648 -21.14844,29.67774 -20.45703,0.4043 -12.26953,-14.36524 -2.01172,1.71875 13.08203,15.31836 23.03907,-0.45703 21.91992,-30.76172 z"
           id="path8606" />
        <circle
           style="opacity:1;fill:#ffffff;stroke:#ffffff;stroke-width:2.64583;stroke-linecap:round;stroke-dasharray:none"
           id="circle8608"
           cx="281.44257"
           cy="14.967422"
           r="7.8421154" />
        <path
           style="color:#000000;fill:#ffffff;stroke:#ffffff;-inkscape-stroke:none"
           d="m 184.3125,0.63085937 -0.0117,2.64648443 79.23242,0.3515625 17.27344,13.4980467 1.62891,-2.083984 -17.98438,-14.05664087 z"
           id="path8610" />
        <circle
           style="opacity:1;fill:#ffffff;stroke:#ffffff;stroke-width:2.64583;stroke-linecap:round;stroke-dasharray:none"
           id="circle8612"
           cx="48.60918"
           cy="-22.074245"
           r="7.8421154" />
        <path
           style="color:#000000;fill:#ffffff;stroke:#ffffff;-inkscape-stroke:none"
           d="m 51.345703,-23.693359 -0.0918,2.642578 32.185547,1.130859 21.53516,23.6132814 1.95312,-1.7832032 -22.283202,-24.4355472 z"
           id="path8614" />
      </g>
      <g
         inkscape:label="Layer 1"
         id="layer1-6"
         style="display:inline;fill:#ffffff;stroke:#ffffff"
         transform="translate(28.289174,31.239276)">
        <path
           id="path7682"
           style="display:none;fill:#ffffff;stroke:#ffffff;stroke-width:0.264583;stroke-linecap:round"
           d="M 158.50507,141.09161 C 194.1628,105.51225 203.03424,73.383559 188.9477,58.596932 174.86116,43.810292 156.80939,21.317791 112.95664,65.49936 L 92.653878,84.875469 c 0,0 -7.6984,6.82272 -1.87527,13.452116 4.49093,4.191975 9.21368,2.024965 11.772312,0.21449 l 19.93044,-19.930426 c 0.49891,-0.4989 1.30219,-0.49854 1.8011,3.6e-4 0.49889,0.4989 0.86899,1.672043 0.37417,2.17491 L 67.587948,138.78373 c -10.24487,10.41149 -0.25724,21.70009 10.32765,11.12432 l 40.351532,-40.31676 c 0.68074,-0.68015 1.77618,-0.68081 2.45663,-3.6e-4 0.68043,0.68043 0.68007,1.77618 -3.7e-4,2.45663 l -41.577232,41.57728 c -12.2962,11.9262 -3.3153,22.59184 9.2553,9.77948 l 41.839332,-41.83936 c 0.68045,-0.68045 1.7762,-0.6808 2.45665,-3.6e-4 0.68044,0.68045 0.68007,1.7762 -3.7e-4,2.45665 l -40.739462,40.73948 c -10.92825,9.38971 -1.31807,19.8402 9.255042,9.77976 l 41.00182,-41.00185 c 0.68044,-0.68045 1.77621,-0.6808 2.45664,-3.6e-4 0.68044,0.68045 0.68009,1.77621 -3.6e-4,2.45664 0,0 -6.50554,5.82924 -33.48261,33.66511 -6.24975,8.06133 0.83674,16.65843 11.19623,7.40053 23.44341,-24.35551 20.53261,-20.27006 32.65485,-32.5191 1.16011,-1.15163 2.31594,-2.30178 3.46591,-3.44978 z"
           sodipodi:nodetypes="czccccssssssssccsssccsssccccc" />
        <path
           id="rect7539"
           style="display:none;fill:#ffffff;stroke:#ffffff;stroke-width:0.264583;stroke-linecap:round"
           d="M 124.98231,95.638473 C 89.402957,59.980775 57.274293,51.109343 42.487668,65.195876 27.701046,79.282403 5.2085577,97.334172 49.390092,141.1869 l 19.376113,20.30278 c 0,0 6.822705,7.69839 13.452108,1.87528 4.191971,-4.49096 2.024947,-9.21371 0.214492,-11.77234 L 62.50238,131.66218 c -0.498898,-0.4989 -0.49854,-1.30219 3.58e-4,-1.80109 0.498901,-0.4989 1.669879,-0.86686 2.174913,-0.37418 l 59.584309,58.12705 c 10.45558,10.19987 21.76724,0.18973 11.12431,-10.32764 l -41.90426,-41.4099 c -0.684464,-0.67639 -0.680807,-1.77619 -3.69e-4,-2.45664 0.680435,-0.68043 1.772003,-0.67587 2.456633,3.7e-4 l 43.164776,42.63563 c 11.9262,12.29618 22.59184,3.3153 9.77949,-9.25532 l -43.42686,-42.89771 c -0.68461,-0.67627 -0.68081,-1.7762 -3.7e-4,-2.45665 0.68045,-0.68044 1.77193,-0.67577 2.45663,3.7e-4 l 42.32699,41.79784 c 9.38973,10.92826 19.84021,1.31806 9.77977,-9.25505 l -42.58934,-42.0602 c -0.68468,-0.67617 -0.68081,-1.77619 -3.7e-4,-2.45663 0.68045,-0.68044 1.77619,-0.68008 2.45663,3.7e-4 0,0 7.41674,7.56388 35.25263,34.54096 8.06133,6.24975 16.65842,-0.83674 7.40051,-11.19623 -24.3555,-23.44342 -21.85756,-21.59096 -34.10662,-33.713179 -1.1517,-1.160038 -2.30208,-2.315646 -3.44981,-3.465885 z"
           sodipodi:nodetypes="czccccssssssssccsssccsssccccc" />
        <g
           id="g8511"
           transform="translate(13.496719,-7.6066397)"
           style="fill:#ffffff;stroke:#ffffff">
          <rect
             style="fill:#ffffff;stroke:#ffffff;stroke-width:0.264583;stroke-linecap:round"
             id="rect7638"
             width="38.438335"
             height="67.059036"
             x="56.654934"
             y="-31.917727"
             ry="1.7369881"
             transform="rotate(49.864297)" />
          <rect
             style="fill:#ffffff;stroke:#ffffff;stroke-width:0.264583;stroke-linecap:round"
             id="rect7684"
             width="35.080788"
             height="67.059036"
             x="-150.94087"
             y="-224.87695"
             ry="1.7369881"
             transform="rotate(139.8643)" />
          <path
             id="path7688"
             style="fill:#ffffff;stroke:#ffffff;stroke-width:0.264583;stroke-linecap:round"
             d="m 184.03682,58.83437 c -11.09996,-0.910151 -25.85272,4.425549 -46.60824,22.058487 l -7.40624,5.998868 11.58347,11.416516 4.2016,-3.542549 c 0.53942,-0.454796 1.33959,-0.386182 1.79439,0.153226 0.4548,0.539407 0.72407,1.739341 0.1884,2.198438 l -4.17286,3.576634 42.63682,50.56889 c 30.59512,-29.17726 39.09615,-56.3253 27.47726,-70.803828 -7.18984,-8.959415 -15.42322,-20.45449 -29.6946,-21.624682 z"
             sodipodi:nodetypes="sccccscccss" />
          <path
             id="path8176"
             style="display:inline;fill:#ffffff;stroke:#ffffff;stroke-width:0.264583;stroke-linecap:round"
             d="m 83.652068,68.663721 c -5.958455,-0.01145 -11.130819,1.666405 -15.268305,4.986701 -15.927765,12.781877 -39.86988,28.861208 0.433785,76.302178 l 17.584888,21.87313 c 0,0 6.1449,8.24871 13.24417,3.00876 0.359134,-0.32459 0.674864,-0.6546 0.958724,-0.9873 l -8.591384,-10.252 c 0,0 -4.57422,-4.45781 -5.077,-7.40922 -0.42741,-2.509 -0.60724,-6.00199 1.98711,-7.37232 l -0.6392,-0.53284 0.035,-0.0291 -5.629884,-6.67716 c -0.454791,-0.5394 -0.386418,-1.33962 0.152988,-1.79441 0.539404,-0.4548 1.737584,-0.72263 2.199021,-0.18891 l 5.737175,6.63635 c 10.490474,-7.89874 18.456904,2.36601 9.821744,11.36051 l 2.08072,2.40633 c 12.71889,-10.27508 20.14425,-0.14805 8.78319,10.15913 l 2.33062,2.69561 c 10.97143,-8.46089 19.24635,1.9282 8.81592,10.19775 l 13.1024,13.88327 c 10.02533,10.62297 21.67227,2.03493 11.95955,-9.34699 l -34.47236,-39.18277 c -0.63563,-0.72248 -0.52781,-1.82757 0.20786,-2.44786 0.73569,-0.62028 1.82306,-0.52296 2.44787,0.20889 l 37.07175,42.22702 c 10.84053,13.26312 22.22904,5.21906 10.52886,-8.39267 l -37.31077,-42.51112 c -0.6248,-0.73184 -0.52783,-1.82705 0.20787,-2.44735 0.7357,-0.62029 1.81269,-0.51449 2.44786,0.20839 l 36.30845,41.32151 c 8.42919,11.68506 19.65698,2.9954 10.52938,-8.39266 l -36.54746,-41.60465 c -0.62485,-0.73178 -0.52782,-1.82757 0.20786,-2.44786 0.7357,-0.62028 1.82757,-0.52675 2.44787,0.20891 0,0 6.74864,8.16558 32.1966,37.40572 7.50234,6.91075 16.66937,0.57901 8.3233,-10.52815 -22.27978,-25.42407 -19.94826,-23.36691 -31.12524,-36.48408 -1.04915,-1.25352 -2.09709,-2.50268 -3.14316,-3.7461 -3.08963,-3.67263 -6.16834,-7.09869 -9.22456,-10.28371 l -13.37232,11.27479 c -2.70295,1.58699 -7.59268,3.34541 -11.71196,-1.21227 -5.23999,-7.09927 3.00927,-13.244174 3.00927,-13.244174 l 10.13878,-8.151085 C 111.78192,76.457853 97.722956,69.691273 86.252956,68.772178 c -0.882579,-0.07072 -1.74968,-0.10682 -2.600888,-0.108457 z"
             sodipodi:nodetypes="sscccccaccccsccccccccccsccccsccccsccccccccccss" />
          <path
             style="fill:#ffffff;stroke:#ffffff;stroke-width:0.264583px;stroke-linecap:butt;stroke-linejoin:miter;stroke-opacity:1"
             d="m 121.20777,184.03652 c 0,0 -8.68709,2.45495 -11.86479,-1.08495 -3.28023,-1.45148 -5.1217,-4.74974 -7.88245,-7.79132 0,0 0.63819,3.60294 4.75381,7.33926 4.33095,4.07681 9.30614,4.6181 14.99343,1.53701 z"
             id="path8326"
             sodipodi:nodetypes="ccccc" />
        </g>
      </g>
    </g>
    <g
       inkscape:label="Layer 1"
       id="layer1-5"
       transform="matrix(0.28452962,0,0,0.28452962,33.733188,7.2575236)"
       style="fill:#ffffff">
      <path
         class="UnoptimicedTransforms"
         inkscape:original-d="M 0,0"
         inkscape:path-effect="#path-effect5382"
         d="M 15.641422,4.7624999 11.714014,19.05 h -0.03307 L 10.414871,23.775292 5.1676464,42.862499 H 14.692646 L 18.620055,28.575 h 9.525 l 2.617928,-9.525 h -9.523966 l 1.308963,-4.7625 h 9.524483 l 2.618445,-9.5250001 h -9.524486 -9.524483 z"
         id="path5384"
         style="fill:#ffffff" />
      <path
         id="rect572"
         style="opacity:1;fill:#ffffff;stroke:#000000;stroke-width:0.269447;stroke-linecap:round;stroke-dasharray:none"
         d="m 16.950603,4.9391659 1.34e-4,14.8174981 h -0.03307 l 0.03288,4.900578 -2.73e-4,19.795251 h 9.525 L 26.47514,29.634996 h 9.525 l -4.34e-4,-9.878332 H 26.47574 l -2.17e-4,-4.939166 h 9.524483 l 8.3e-5,-9.8783321 H 26.475603 16.95112 Z"
         transform="matrix(1,0,-0.26506112,0.96423161,0,0)"
         class="UnoptimicedTransforms" />
      <path
         id="rect1729"
         style="opacity:1;fill:#ffffff;stroke:#000000;stroke-width:0.264584;stroke-linecap:round;stroke-dasharray:none"
         d="m 154.82257,4.759916 -10.47326,38.1 h 9.525 l 5.24258,-19.072221 4.30464,19.072221 h 9.525 l 10.47326,-38.1 h -9.525 l -5.24257,19.07222 -4.30465,-19.07222 z" />
      <path
         id="path1785"
         style="fill:#ffffff;stroke:#000000;stroke-width:0.264583px;stroke-linecap:butt;stroke-linejoin:miter;stroke-opacity:1"
         d="m 186.05374,4.7619832 -2.55437,9.5249998 h 0.0326 l -5.36712,19.047933 h -0.0305 l -2.5523,9.524999 h 9.55343 l 0.002,0.0021 9.60148,0.0083 2.61793,-9.525 h -0.14263 l 0.003,-0.01033 h -9.4604 l 2.61793,-9.522933 2.61792,-9.525 9.63301,0.01085 2.61844,-9.5249998 h -0.14366 l 0.003,-0.010852 z" />
      <path
         id="rect2627"
         style="opacity:1;fill:#ffffff;stroke:#000000;stroke-width:0.264688;stroke-linecap:round;stroke-dasharray:none"
         d="m 255.54615,4.7495808 -2.55437,9.5244832 -1.40767,4.763017 -2.55229,9.524999 9.16843,0.129708 0.0372,-0.129708 h 9.88105 l -1.33222,4.762501 h -19.16265 l -2.55231,9.524999 h 19.05 9.525 l 2.55231,-9.524999 1.40818,-4.762501 2.55229,-9.524999 -9.33896,-0.130225 -0.0367,0.130225 h -9.81336 l 1.36685,-4.763017 h 19.25205 l 2.55437,-9.5244832 z" />
      <path
         id="rect2821"
         style="opacity:1;fill:#ffffff;stroke:#000000;stroke-width:0.264584;stroke-linecap:round;stroke-dasharray:none"
         d="m 386.21878,4.7495808 -2.55436,9.5249992 h 4.6979 l -7.85481,28.575 h 9.525 l 7.85481,-28.575 h 4.76198 l 2.61845,-9.5249992 h -4.76199 -9.52499 z" />
      <rect
         style="opacity:1;fill:#ffffff;stroke:#000000;stroke-width:0.269447;stroke-linecap:round;stroke-dasharray:none"
         id="rect4466"
         width="9.5249996"
         height="39.513325"
         x="462.1806"
         y="4.9254827"
         transform="matrix(1,0,-0.26506112,0.96423161,0,0)" />
      <path
         id="rect4472"
         style="opacity:1;fill:#ffffff;stroke:#000000;stroke-width:0.264584;stroke-linecap:round;stroke-dasharray:none"
         d="m 473.04603,4.749064 -10.47378,38.099999 h 9.525 l 5.24361,-19.073771 4.30464,19.072738 -5.1e-4,10e-4 h 5.1e-4 9.52449 5.1e-4 v -10e-4 L 501.64325,4.749064 h -9.525 l -5.24257,19.071187 -4.30413,-19.071187 h -5.2e-4 -9.52448 z" />
      <path
         id="rect5023"
         style="opacity:1;fill:#ffffff;stroke:#000000;stroke-width:0.264584;stroke-linecap:round;stroke-dasharray:none"
         d="M 63.816774,4.7619832 59.889365,19.049483 h -0.03307 l -1.275891,4.7625 -2.617927,9.522933 h -0.0646 l -2.494422,9.308992 -0.05994,0.218074 h 9.525 l 5.16e-4,-0.0021 h 9.492961 l 2.617928,-9.525 h -9.492444 l 1.308447,-4.760433 h 9.524483 l 2.617928,-9.525 h -9.523966 l 1.308964,-4.7625 h 9.524483 L 82.86626,4.7619492 h -9.524483 z" />
      <path
         id="rect5031"
         style="opacity:1;fill:#ffffff;stroke:#000000;stroke-width:0.264584;stroke-linecap:round;stroke-dasharray:none"
         d="M 85.511574,4.7619832 81.584165,19.049483 h -0.03307 l -1.275892,4.7625 -2.617927,9.522933 h -0.0646 l -2.494421,9.308992 -0.05994,0.218074 h 9.524999 l 5.18e-4,-0.0021 h 9.49296 l 2.617932,-9.525 h -9.49245 l 1.308452,-4.760433 h 9.524476 l 2.617918,-9.525 h -9.523952 l 1.308961,-4.7625 h 9.524471 l 2.61844,-9.5249998 h -9.524459 z" />
      <path
         id="rect5039"
         style="opacity:1;fill:#ffffff;stroke:#000000;stroke-width:0.264584;stroke-linecap:round;stroke-dasharray:none"
         d="M 107.20687,4.7619832 99.352586,33.334916 h -0.0646 l -2.494419,9.308992 -0.05994,0.218074 h 9.524993 l 5.2e-4,-0.0021 h 9.49296 l 2.61792,-9.525 h -9.49244 l 7.85429,-28.5729328 z" />
      <path
         id="rect5047"
         style="opacity:1;fill:#ffffff;stroke:#000000;stroke-width:0.264584;stroke-linecap:round;stroke-dasharray:none"
         d="m 207.71598,4.7619832 -3.92741,14.2874998 h -0.0331 l -1.27589,4.7625 -2.61793,9.522933 h -0.0646 l -2.49442,9.308992 -0.0599,0.218074 h 9.525 l 5.2e-4,-0.0021 h 9.49296 l 2.61793,-9.525 h -9.49245 l 1.30845,-4.760433 h 9.525 l 2.61741,-9.525 h -9.52397 l 1.30897,-4.7625 h 9.52448 l 2.61844,-9.5249998 h -9.52448 z" />
      <path
         id="rect5169"
         style="opacity:1;fill:#ffffff;stroke:#000000;stroke-width:0.264584;stroke-linecap:round;stroke-dasharray:none"
         d="M 342.86019,4.7495808 338.93278,19.03708 h -0.0326 l -1.25625,4.688087 -2.63809,9.596829 h -0.0646 l -2.49959,9.329146 -0.0548,0.198438 h 9.525 l 5.2e-4,-0.0026 h 9.49296 l 2.61793,-9.525 h -9.49245 l 1.30845,-4.759916 h 9.525 l 2.61793,-9.525 h -9.52449 l 1.30897,-4.7625 h 9.525 l 2.61844,-9.5249992 h -9.525 z" />
      <path
         id="rect5177"
         style="opacity:1;fill:#ffffff;stroke:#000000;stroke-width:0.264584;stroke-linecap:round;stroke-dasharray:none"
         d="M 364.55499,4.7495808 360.62758,19.03708 h -0.0326 l -1.25625,4.688087 -2.63809,9.596829 h -0.0646 l -2.49959,9.329146 -0.0548,0.198438 h 9.525 l 5.2e-4,-0.0026 h 9.49296 l 2.61793,-9.525 h -9.49245 l 1.30845,-4.759916 h 9.525 l 2.61793,-9.525 h -9.52449 l 1.30897,-4.7625 h 9.52499 l 2.61853,-9.5249832 h -9.525 z" />
      <path
         id="rect5289"
         style="opacity:1;fill:#ffffff;stroke:#000000;stroke-width:0.264584;stroke-linecap:round;stroke-dasharray:none"
         d="m 504.28909,4.749064 -2.55438,9.524999 h 4.69791 l -7.85533,28.575 h 9.525 l 7.85533,-28.575 h 4.76198 l 2.61845,-9.524999 h -4.76198 -9.525 z" />
      <path
         style="fill:#ffffff;stroke:#000000;stroke-width:0.264583px;stroke-linecap:butt;stroke-linejoin:miter;stroke-opacity:1"
         d="M 295.61697,42.849395 306.0904,4.7493983 h 9.525 l 4.19502,11.4983457 10.62527,-11.4983457 h 9.525 L 329.50571,42.849395 h -9.52485 l 6.14749,-22.964194 -3.55854,3.914195 h -9.525 l -1.45179,-4.41751 -6.45107,23.467509 z"
         id="path5517" />
      <path
         id="path7061"
         style="fill:#ffffff;stroke:none"
         d="M 15.641422,4.7624999 11.714013,19.05 h -0.03307 L 10.41487,23.775293 5.1676454,42.862499 h 9.5249996 l 3.927409,-14.2875 3.954797,14.417208 h 7.247103 L 26.027867,28.574999 h 2.117184 5.29115 l 6.54637,-23.8124991 h -5.291667 -4.233333 -5.29115 -9.524483 z M 22.547977,14.2875 h 5.291149 l -1.30948,4.7625 h -5.290633 z"
         transform="translate(21.166667)" />
      <path
         id="path7081"
         style="fill:#ffffff;stroke:none"
         d="M 127.29559,4.7624999 123.36818,19.05 h -0.0331 l -1.26608,4.725293 -5.24722,19.087206 h 9.525 l 3.92741,-14.2875 h 5.60637 l -3.6127,14.2875 h 8.79223 l 3.96617,-14.2875 h 0.0641 l 6.54637,-23.8124991 h -9.525 -5.29115 -9.52449 z m 6.90655,9.5250001 h 5.29115 l -1.30948,4.7625 h -5.29063 z" />
      <path
         id="path7091"
         style="fill:#ffffff;stroke:none"
         d="M 228.89568,4.7624999 224.96827,19.05 h -0.0331 l -1.26607,4.725293 -5.24723,19.087206 h 9.525 l 3.92741,-14.2875 3.9548,14.417208 h 7.24711 L 239.2821,28.574999 h 2.11719 5.29115 l 6.54637,-23.8124991 h -5.29167 -4.23333 -5.29116 -9.52448 z m 6.90656,9.5250001 h 5.29115 l -1.30948,4.7625 h -5.29063 z" />
      <path
         id="path7093"
         style="fill:#ffffff;stroke:none"
         d="M 407.7539,4.7624999 403.82649,19.05 h -0.0331 l -1.26607,4.725293 -5.24722,19.087206 h 9.525 l 3.9274,-14.2875 h 7.40782 7.40833 l 6.54637,-23.8124991 h -5.29166 -4.23334 -5.29115 -9.52448 z m 6.90655,9.5250001 h 5.29115 l -1.30948,4.7625 h -5.29063 z" />
      <path
         id="path7098"
         style="fill:#ffffff;stroke:none"
         d="M 434.21223,4.7624999 430.28483,19.05 h -0.0331 l -1.26607,4.725293 -5.24722,19.087206 h 9.525 l 3.9274,-14.2875 2.61897,-9.524999 1.30896,-4.7625 h 5.29115 l -1.30948,4.7625 -2.30322,9.524999 -3.6127,14.2875 h 8.79223 l 3.96616,-14.2875 h 0.0641 l 6.54637,-23.8124991 h -9.525 -5.29115 -9.52448 z" />
      <path
         style="fill:#ffffff;stroke:none;stroke-width:0.264583px;stroke-linecap:butt;stroke-linejoin:miter;stroke-opacity:1"
         d="m 435.88262,33.337499 h 5.29063 9.52511 l -2.61855,9.525 h -14.81617 l -9.43692,-0.319167 2.5309,-9.205833 z"
         id="path7100" />
    </g>
    <text
       xml:space="preserve"
       style="font-style:normal;font-weight:normal;font-size:9.87778px;line-height:1.25;font-family:sans-serif;fill:#3c3c3c;fill-opacity:1;stroke:none;stroke-width:0.264583"
       x="166.25751"
       y="107.61883"
       id="text25195"><tspan
         sodipodi:role="line"
         id="tspan25193"
         style="font-style:normal;font-variant:normal;font-weight:normal;font-stretch:normal;font-size:9.87778px;font-family:sans-serif;-inkscape-font-specification:sans-serif;fill:#3c3c3c;fill-opacity:1;stroke-width:0.264583"
         x="166.25751"
         y="107.61883">Username</tspan></text>
    <rect
       style="fill:#ffffff;fill-opacity:1;stroke:#000000;stroke-width:0.264583;stroke-linecap:round;stroke-dasharray:none"
       id="rect25251"
       width="200.26704"
       height="21.386169"
       x="153.86647"
       y="111.03195"
       ry="6" />
    <text
       xml:space="preserve"
       style="font-style:normal;font-weight:normal;font-size:9.87778px;line-height:1.25;font-family:sans-serif;fill:#3c3c3c;fill-opacity:1;stroke:none;stroke-width:0.264583"
       x="166.25751"
       y="155.24385"
       id="text25255"><tspan
         sodipodi:role="line"
         id="tspan25253"
         style="font-style:normal;font-variant:normal;font-weight:normal;font-stretch:normal;font-size:9.87778px;font-family:sans-serif;-inkscape-font-specification:sans-serif;fill:#3c3c3c;fill-opacity:1;stroke-width:0.264583"
         x="166.25751"
         y="155.24385">Password</tspan></text>
    <rect
       style="fill:#ffffff;fill-opacity:1;stroke:#000000;stroke-width:0.264583;stroke-linecap:round;stroke-dasharray:none"
       id="rect25257"
       width="200.26704"
       height="21.386169"
       x="153.86647"
       y="158.65698"
       ry="6" />
    <rect
       style="fill:#2200bb;fill-opacity:1;stroke:none;stroke-width:0.264583;stroke-linecap:round;stroke-dasharray:none"
       id="rect25263"
       width="84.779076"
       height="24"
       x="153.86647"
       y="60.059673"
       ry="12" />
    <text
       xml:space="preserve"
       style="font-style:normal;font-weight:normal;font-size:10.5833px;line-height:1.25;font-family:sans-serif;fill:#000000;fill-opacity:1;stroke:none;stroke-width:0.264583"
       x="170.75026"
       y="76.028412"
       id="text25261"><tspan
         sodipodi:role="line"
         id="tspan25259"
         style="fill:#ffffff;stroke-width:0.264583"
         x="170.75026"
         y="76.028412">Find Work</tspan></text>
    <rect
       style="fill:#ffffff;fill-opacity:1;stroke:none;stroke-width:0.264583;stroke-linecap:round;stroke-dasharray:none"
       id="rect25265"
       width="84.779076"
       height="24"
       x="269.35443"
       y="60.059673"
       ry="12" />
    <text
       xml:space="preserve"
       style="font-style:normal;font-weight:normal;font-size:10.5833px;line-height:1.25;font-family:sans-serif;fill:#000000;fill-opacity:1;stroke:none;stroke-width:0.264583"
       x="284.31735"
       y="76.028412"
       id="text25269"><tspan
         sodipodi:role="line"
         id="tspan25267"
         style="fill:#000000;stroke-width:0.264583"
         x="284.31735"
         y="76.028412">Find Talent</tspan></text>
    <text
       xml:space="preserve"
       style="font-style:normal;font-weight:normal;font-size:10.5833px;line-height:1.25;font-family:sans-serif;fill:#000000;fill-opacity:1;stroke:none;stroke-width:0.264583"
       x="248.40143"
       y="74.895996"
       id="text25325"><tspan
         sodipodi:role="line"
         id="tspan25323"
         style="stroke-width:0.264583"
         x="248.40143"
         y="74.895996">or</tspan></text>
    <rect
       style="fill:#2200bb;fill-opacity:1;stroke:none;stroke-width:0.264583;stroke-linecap:round;stroke-dasharray:none"
       id="rect25416"
       width="84.779076"
       height="24"
       x="216.62694"
       y="196.48573"
       ry="12" />
    <text
       xml:space="preserve"
       style="font-style:normal;font-weight:normal;font-size:14.1111px;line-height:1.25;font-family:sans-serif;fill:#000000;fill-opacity:1;stroke:none;stroke-width:0.264583"
       x="238.0121"
       y="211.83006"
       id="text25473"><tspan
         sodipodi:role="line"
         id="tspan25471"
         style="font-size:14.1111px;fill:#ffffff;stroke-width:0.264583"
         x="238.0121"
         y="211.83006">Log In</tspan></text>
    <text
       xml:space="preserve"
       style="font-style:normal;font-weight:normal;font-size:10.5833px;line-height:1.25;font-family:sans-serif;fill:#000000;fill-opacity:1;stroke:none;stroke-width:0.264583"
       x="152.7076"
       y="244.83934"
       id="text25477"><tspan
         sodipodi:role="line"
         id="tspan25475"
         style="fill:#003b8b;fill-opacity:1;stroke-width:0.264583"
         x="152.7076"
         y="244.83934">Don't have an account? <tspan
   style="font-style:normal;font-variant:normal;font-weight:normal;font-stretch:normal;font-family:sans-serif;-inkscape-font-specification:sans-serif"
   id="tspan25479">Sign Up</tspan></tspan></text>
    <path
       style="fill:none;stroke:#003b8b;stroke-width:0.79375;stroke-linecap:butt;stroke-linejoin:miter;stroke-dasharray:none;stroke-opacity:1"
       d="m 269.40888,246.42682 h 40.48189"
       id="path25481" />
  </g>
</svg>
