<?xml version="1.0" encoding="UTF-8" standalone="no"?>
<!-- Created with Inkscape (http://www.inkscape.org/) -->

<svg
   width="32"
   height="32"
   viewBox="0 0 8.4666666 8.4666666"
   version="1.1"
   id="svg5"
   xml:space="preserve"
   inkscape:version="1.2.1 (9c6d41e410, 2022-07-14)"
   sodipodi:docname="favicon.svg"
   xmlns:inkscape="http://www.inkscape.org/namespaces/inkscape"
   xmlns:sodipodi="http://sodipodi.sourceforge.net/DTD/sodipodi-0.dtd"
   xmlns="http://www.w3.org/2000/svg"
   xmlns:svg="http://www.w3.org/2000/svg"><sodipodi:namedview
     id="namedview7"
     pagecolor="#ffffff"
     bordercolor="#666666"
     borderopacity="1.0"
     inkscape:showpageshadow="2"
     inkscape:pageopacity="0.0"
     inkscape:pagecheckerboard="0"
     inkscape:deskcolor="#d1d1d1"
     inkscape:document-units="mm"
     showgrid="false"
     inkscape:zoom="6.7277216"
     inkscape:cx="20.214867"
     inkscape:cy="13.377486"
     inkscape:window-width="1366"
     inkscape:window-height="699"
     inkscape:window-x="0"
     inkscape:window-y="0"
     inkscape:window-maximized="1"
     inkscape:current-layer="layer1" /><defs
     id="defs2" /><g
     inkscape:label="Layer 1"
     inkscape:groupmode="layer"
     id="layer1"><rect
       style="fill:#2200bb;stroke:none;stroke-width:2.64583;stroke-linecap:round;fill-opacity:1"
       id="rect391"
       width="8.4666662"
       height="8.4666662"
       x="0"
       y="0" /><g
       inkscape:label="Layer 1"
       id="layer1-6"
       transform="matrix(0.10551374,0,0,0.10551374,0.35244736,1.7207873)"
       style="fill:#ffffff;stroke:#ffffff"><path
         id="rect572"
         style="fill:#ffffff;stroke:#ffffff;stroke-width:0.269447;stroke-linecap:round;stroke-dasharray:none"
         d="m 16.950603,4.9391659 1.34e-4,14.8174981 h -0.03307 l 0.03288,4.900578 -2.73e-4,19.795251 h 9.525 L 26.47514,29.634996 h 9.525 l -4.34e-4,-9.878332 H 26.47574 l -2.17e-4,-4.939166 h 9.524483 l 8.3e-5,-9.8783321 H 26.475603 16.95112 Z"
         transform="matrix(1,0,-0.26506112,0.96423161,-1.407917,6.0914119e-7)"
         class="UnoptimicedTransforms" /><path
         style="fill:#ffffff;stroke:#ffffff;stroke-width:0.264583px;stroke-linecap:butt;stroke-linejoin:miter;stroke-opacity:1"
         d="M 25.455219,42.862499 35.928649,4.7625022 h 9.525 l 4.19502,11.4983458 10.62527,-11.4983458 h 9.525 L 59.343959,42.862499 h -9.52485 l 6.14749,-22.964194 -3.55854,3.914195 h -9.525 l -1.45179,-4.41751 -6.45107,23.467509 z"
         id="path5517" /></g></g></svg>
